2014031_C5_05_grf
version=1
nRows=30
nColumns=19
inDegrees=no
endheader
time	ground_force_1_vx	ground_force_1_vy	ground_force_1_vz	ground_force_1_px	ground_force_1_py	ground_force_1_pz	ground_force_1_mx	ground_force_1_my	ground_force_1_mz	ground_force_2_vx	ground_force_2_vy	ground_force_2_vz	ground_force_2_px	ground_force_2_py	ground_force_2_pz	ground_force_2_mx	ground_force_2_my	ground_force_2_mz
      0.38200000	     -0.45293238	    446.55969739	     28.88461389	      0.17745657	     -0.00200000	     -0.30194416	      0.00000000	     -0.15324012	      0.00000000	      0.00000000	      0.00000000	      0.00000000	      0.00000000	      0.00000000	      0.00000000	      0.00000000	      0.00000000	      0.00000000
      0.38300000	      0.00496754	    448.93635809	     29.07146513	      0.17770552	     -0.00200000	     -0.30186671	      0.00000000	     -0.16496139	      0.00000000	      0.00000000	      0.00000000	      0.00000000	      0.00000000	      0.00000000	      0.00000000	      0.00000000	      0.00000000	      0.00000000
      0.38400000	      0.47016435	    451.36508346	     29.25331518	      0.17794678	     -0.00200000	     -0.30178653	     -0.00000000	     -0.17764721	     -0.00000000	      0.00000000	      0.00000000	      0.00000000	      0.00000000	      0.00000000	      0.00000000	      0.00000000	      0.00000000	      0.00000000
      0.38500000	      0.94464133	    453.85822654	     29.42848019	      0.17817862	     -0.00200000	     -0.30170304	      0.00000000	     -0.19159204	      0.00000000	      0.00000000	      0.00000000	      0.00000000	      0.00000000	      0.00000000	      0.00000000	      0.00000000	      0.00000000	      0.00000000
      0.38600000	      1.42665848	    456.40242100	     29.59798276	      0.17840315	     -0.00200000	     -0.30161697	      0.00000000	     -0.20658358	      0.00000000	      0.00000000	      0.00000000	      0.00000000	      0.00000000	      0.00000000	      0.00000000	      0.00000000	      0.00000000	      0.00000000
      0.38700000	      1.91823283	    459.00972188	     29.76006269	      0.17861882	     -0.00200000	     -0.30152781	      0.00000000	     -0.22292874	      0.00000000	      0.00000000	      0.00000000	      0.00000000	      0.00000000	      0.00000000	      0.00000000	      0.00000000	      0.00000000	      0.00000000
      0.38800000	      2.41755298	    461.66691184	     29.91595864	      0.17882762	     -0.00200000	     -0.30143629	      0.00000000	     -0.24038903	      0.00000000	      0.00000000	      0.00000000	      0.00000000	      0.00000000	      0.00000000	      0.00000000	      0.00000000	      0.00000000	      0.00000000
      0.38900000	      2.92666955	    464.38574791	     30.06385732	      0.17902815	     -0.00200000	     -0.30134196	      0.00000000	     -0.25927613	      0.00000000	      0.00000000	      0.00000000	      0.00000000	      0.00000000	      0.00000000	      0.00000000	      0.00000000	      0.00000000	      0.00000000
      0.39000000	      3.44370678	    467.15325117	     30.20517156	      0.17922229	     -0.00200000	     -0.30124552	     -0.00000000	     -0.27932624	     -0.00000000	      0.00000000	      0.00000000	      0.00000000	      0.00000000	      0.00000000	      0.00000000	      0.00000000	      0.00000000	      0.00000000
      0.39100000	      3.97073710	    469.98079121	     30.33805825	      0.17940877	     -0.00200000	     -0.30114660	      0.00000000	     -0.30085157	      0.00000000	      0.00000000	      0.00000000	      0.00000000	      0.00000000	      0.00000000	      0.00000000	      0.00000000	      0.00000000	      0.00000000
      0.39200000	      4.50582942	    472.85565734	     30.46407551	      0.17958936	     -0.00200000	     -0.30104582	      0.00000000	     -0.32357062	      0.00000000	      0.00000000	      0.00000000	      0.00000000	      0.00000000	      0.00000000	      0.00000000	      0.00000000	      0.00000000	      0.00000000
      0.39300000	      5.05107525	    475.78883171	     30.58138210	      0.17976292	     -0.00200000	     -0.30094284	      0.00000000	     -0.34779336	      0.00000000	      0.00000000	      0.00000000	      0.00000000	      0.00000000	      0.00000000	      0.00000000	      0.00000000	      0.00000000	      0.00000000
      0.39400000	      5.60449669	    478.76790166	     30.69164604	      0.17993110	     -0.00200000	     -0.30083823	      0.00000000	     -0.37322400	      0.00000000	      0.00000000	      0.00000000	      0.00000000	      0.00000000	      0.00000000	      0.00000000	      0.00000000	      0.00000000	      0.00000000
      0.39500000	      6.16819318	    481.80338740	     30.79304658	      0.18009284	     -0.00200000	     -0.30073170	      0.00000000	     -0.40016410	      0.00000000	      0.00000000	      0.00000000	      0.00000000	      0.00000000	      0.00000000	      0.00000000	      0.00000000	      0.00000000	      0.00000000
      0.39600000	      6.74014771	    484.88318920	     30.88733181	      0.18024966	     -0.00200000	     -0.30062375	      0.00000000	     -0.42830579	      0.00000000	      0.00000000	      0.00000000	      0.00000000	      0.00000000	      0.00000000	      0.00000000	      0.00000000	      0.00000000	      0.00000000
      0.39700000	      7.32246786	    488.01730573	     30.97272851	      0.18040062	     -0.00200000	     -0.30051416	      0.00000000	     -0.45793544	      0.00000000	      0.00000000	      0.00000000	      0.00000000	      0.00000000	      0.00000000	      0.00000000	      0.00000000	      0.00000000	      0.00000000
      0.39800000	      7.91311450	    491.19397998	     31.05104901	      0.18054710	     -0.00200000	     -0.30040340	      0.00000000	     -0.48874089	      0.00000000	      0.00000000	      0.00000000	      0.00000000	      0.00000000	      0.00000000	      0.00000000	      0.00000000	      0.00000000	      0.00000000
      0.39900000	      8.51421384	    494.42270398	     31.12061322	      0.18068827	     -0.00200000	     -0.30029134	      0.00000000	     -0.52099250	      0.00000000	      0.00000000	      0.00000000	      0.00000000	      0.00000000	      0.00000000	      0.00000000	      0.00000000	      0.00000000	      0.00000000
      0.40000000	      9.12371185	    497.69210815	     31.18326701	      0.18082541	     -0.00200000	     -0.30017836	      0.00000000	     -0.55437906	      0.00000000	      0.00000000	      0.00000000	      0.00000000	      0.00000000	      0.00000000	      0.00000000	      0.00000000	      0.00000000	      0.00000000
      0.40100000	      9.74375848	    501.01119280	     31.23744298	      0.18095780	     -0.00200000	     -0.30006440	      0.00000000	     -0.58915254	      0.00000000	      0.00000000	      0.00000000	      0.00000000	      0.00000000	      0.00000000	      0.00000000	      0.00000000	      0.00000000	      0.00000000
      0.40200000	     10.37228480	    504.36908007	     31.28498793	      0.18108658	     -0.00200000	     -0.29994977	      0.00000000	     -0.62500826	      0.00000000	      0.00000000	      0.00000000	      0.00000000	      0.00000000	      0.00000000	      0.00000000	      0.00000000	      0.00000000	      0.00000000
      0.40300000	     11.01145940	    507.77414441	     31.32447600	      0.18121111	     -0.00200000	     -0.29983446	      0.00000000	     -0.66217966	      0.00000000	      0.00000000	      0.00000000	      0.00000000	      0.00000000	      0.00000000	      0.00000000	      0.00000000	      0.00000000	      0.00000000
      0.40400000	     11.65919006	    511.21592522	     31.35772049	      0.18133242	     -0.00200000	     -0.29971874	      0.00000000	     -0.70037103	      0.00000000	      0.00000000	      0.00000000	      0.00000000	      0.00000000	      0.00000000	      0.00000000	      0.00000000	      0.00000000	      0.00000000
      0.40500000	     12.31765980	    514.70234990	     31.38345852	      0.18144995	     -0.00200000	     -0.29960268	      0.00000000	     -0.73979502	      0.00000000	      0.00000000	      0.00000000	      0.00000000	      0.00000000	      0.00000000	      0.00000000	      0.00000000	      0.00000000	      0.00000000
      0.40600000	     12.98476104	    518.22340488	     31.40344843	      0.18156462	     -0.00200000	     -0.29948647	      0.00000000	     -0.78016859	      0.00000000	      0.00000000	      0.00000000	      0.00000000	      0.00000000	      0.00000000	      0.00000000	      0.00000000	      0.00000000	      0.00000000
      0.40700000	     13.66271498	    521.78639174	     31.41660430	      0.18167596	     -0.00200000	     -0.29937025	      0.00000000	     -0.82167855	      0.00000000	      0.00000000	      0.00000000	      0.00000000	      0.00000000	      0.00000000	      0.00000000	      0.00000000	      0.00000000	      0.00000000
      0.40800000	     14.34941404	    525.38180351	     31.42458946	      0.18178479	     -0.00200000	     -0.29925412	      0.00000000	     -0.86405492	      0.00000000	      0.00000000	      0.00000000	      0.00000000	      0.00000000	      0.00000000	      0.00000000	      0.00000000	      0.00000000	      0.00000000
      0.40900000	     15.04713111	    529.01640534	     31.42650425	      0.18189069	     -0.00200000	     -0.29913826	      0.00000000	     -0.90745956	      0.00000000	      0.00000000	      0.00000000	      0.00000000	      0.00000000	      0.00000000	      0.00000000	      0.00000000	      0.00000000	      0.00000000
      0.41000000	     15.75374044	    532.68110752	     31.42388910	      0.18199441	     -0.00200000	     -0.29902271	      0.00000000	     -0.95164156	      0.00000000	      0.00000000	      0.00000000	      0.00000000	      0.00000000	      0.00000000	      0.00000000	      0.00000000	      0.00000000	      0.00000000
      0.41100000	     16.47157036	    536.38201952	     31.41604550	      0.18209560	     -0.00200000	     -0.29890768	      0.00000000	     -0.99673846	      0.00000000	      0.00000000	      0.00000000	      0.00000000	      0.00000000	      0.00000000	      0.00000000	      0.00000000	      0.00000000	      0.00000000
